<svg width="422" height="301" viewBox="0 0 422 301" fill="none" xmlns="http://www.w3.org/2000/svg">
<path d="M67.7919 175.074C72.0112 182.957 76.2305 190.839 80.307 198.761L68.7379 201.915L67.7919 175.074Z" fill="black"/>
<path d="M188.225 196.441C184.226 197.532 180.775 194.89 178.938 187.916L176.297 177.89C174.794 171.603 176.562 167.851 180.418 166.8C184.846 165.593 188.394 169.765 191.035 179.791C193.675 189.817 192.653 195.234 188.225 196.441Z" fill="black"/>
<path d="M276.2 148.788C274.708 143.122 272.055 138.861 267.627 140.068C263.77 141.119 261.965 144.726 264.101 154.578L276.812 151.113L276.2 148.788Z" fill="black"/>
<path fill-rule="evenodd" clip-rule="evenodd" d="M133.396 35.2862C134.233 33.7393 135.248 32.2602 136.441 30.867C141.014 25.5246 147.467 22.2681 154.338 20.3951C161.413 18.4666 169.038 17.916 175.753 20.9965C177.519 21.8063 179.081 22.8 180.453 23.9375C186.195 16.4715 194.474 12.0779 203.804 9.53474C209.378 8.01527 213.796 7.41777 217.486 7.40098C222.177 7.37963 226.291 10.1169 228.268 14.1688C230.919 13.2524 233.736 12.3948 236.985 11.5091C242.77 9.93213 249.719 8.43035 255.174 8.13719C258.562 7.9551 261.867 9.24406 264.268 11.6836C266.092 13.5376 267.263 15.9237 267.644 18.4754C272.304 16.6769 276.92 15.1844 282.895 13.5555C288.648 11.9874 295.852 10.4121 301.325 10.118L304.555 9.02851C315.604 4.74977 325.665 2.00418 337.134 0.150894C340.505 -0.393874 343.944 0.551085 346.587 2.74825C349.231 4.94542 350.826 8.18588 350.974 11.6552C351.365 20.8881 351.823 28.8246 352.508 36.6442L354.277 57.5844L354.279 57.6044C354.763 63.4487 354.803 69.1009 354.21 74.4804L354.891 74.2949C357.701 73.455 360.531 72.6839 363.378 71.9814L377.419 68.154C385.208 66.0307 393.214 70.7332 395.301 78.6573L397.909 88.5574C398.014 88.9566 398.091 89.3568 398.14 89.7557C398.282 90.1984 398.423 90.6446 398.562 91.0941C401.813 101.542 404.814 112.946 407.268 124.135L408.965 130.14C412.661 135.723 416.117 141.433 417.59 147.024C420.879 159.512 424.343 174.291 415.383 188.416C406.851 201.866 397.504 206.944 385.945 210.095C380.53 211.571 373.928 212.766 366.728 212.435C369.1 220.274 351.621 226.198 344.992 228.005C338.364 229.812 320.05 232.569 317.394 223.657C317.394 223.657 308.222 231.282 290.756 236.043C273.291 240.804 262.231 240.977 248.237 236.593C247.841 237.112 247.451 237.664 247.04 238.245C244.884 241.297 242.174 245.133 235.245 248.918C230.049 251.756 223.772 253.36 218.859 254.615C215.974 255.353 213.56 255.97 212.112 256.645C211.602 259.268 211.658 261.534 211.709 263.542C211.856 269.43 211.948 273.099 197.507 277.035L176.902 282.652C160.34 287.167 158.568 283.646 155.765 278.075C154.862 276.28 153.852 274.273 152.206 272.253L151.787 272.367C142.76 275.921 123.542 281.912 101.111 288.027C70.0282 296.499 44.4037 302.04 43.3481 300.533C32.7982 299.784 24.3841 291.767 20.7064 280.298C17.8261 271.315 15.3869 262.054 13.4664 252.81C11.8808 245.177 13.4765 237.459 17.5033 231.272C17.9352 224.808 18.3153 218.312 18.6441 211.814C16.0261 208.933 13.9641 205.461 12.678 201.536C10.6549 195.361 8.66732 188.563 6.88234 180.846L6.68725 180.899L0.300686 156.652C-0.951576 151.897 1.82189 147.01 6.49539 145.736L46.3483 134.873C46.7742 132.083 48.1401 129.55 50.1694 127.691C50.0025 122.883 49.7377 118.103 49.3752 113.352L49.3696 113.276C49.1003 109.433 48.7246 105.593 48.2768 101.73C48.0674 101.592 47.8616 101.447 47.6599 101.296C45.0074 99.3029 43.2802 96.2854 42.8858 92.9549C41.9979 85.4577 41.4607 78.2238 41.3237 69.936C41.2313 64.3477 44.8893 59.4125 50.1961 57.9659L133.396 35.2862ZM141.717 49.4319C140.56 41.6139 145.624 35.38 156.572 32.3956C168.242 29.2145 174.344 32.7984 175.404 40.2492C176.56 48.0671 171.497 54.3011 160.549 57.2854C148.879 60.4666 142.777 56.8826 141.717 49.4319ZM176.217 56.5562C175.53 66.1884 175.413 75.5343 175.897 84.7162L176.924 104.769C177.128 107.993 177.691 109.152 178.654 108.889C179.857 108.561 180.336 106.463 179.995 96.8483L184.687 95.5693C186.071 118.936 182.477 126.343 168.04 130.279C153.242 134.313 148.195 126.899 147.633 113.016C147.26 103.279 146.954 95.754 146.303 87.4049C144.979 87.7657 143.471 87.9144 141.963 88.0632C141.208 80.7916 140.879 73.6664 140.846 66.198C146.756 63.6687 151.713 61.9241 159.051 59.9236C165.187 58.2511 171.781 56.8473 176.217 56.5562ZM109.25 76.6474C108.407 69.531 107.949 61.9162 107.772 54.8806L138.812 46.4195C139.711 53.2583 140.289 60.8402 140.53 68.1206C139.239 68.6038 137.828 69.1197 136.504 69.4804C136.727 81.095 137.19 92.6439 138.013 104.094C138.796 114.9 139.579 125.706 140.723 136.413L101.743 147.039C95.3629 132.118 88.8304 117.108 81.8489 102.351L82.1028 106.742C82.5611 114.357 83.1074 121.816 83.9266 129.332L88.5951 128.453C89.117 132.861 89.4915 137.459 89.7429 141.993L95.2689 140.486C107.422 163.96 120.613 187.307 134.765 210.235C136.375 209.952 137.699 209.747 139.203 209.649C141.775 217.669 143.956 225.951 145.671 234.205L90.5391 249.233C87.9675 241.213 85.786 232.931 84.0713 224.677C86.5654 223.686 89.0604 222.694 91.5928 221.848L87.506 213.307L69.3667 218.251L69.7782 227.95C72.3874 227.395 74.9966 226.839 77.5012 226.468C80.0729 234.488 82.2543 242.771 83.969 251.024L41.4059 262.627C38.8342 254.607 36.6528 246.324 34.9381 238.07C36.147 237.429 37.3942 236.934 38.6414 236.438C40.03 218.461 41.018 200.127 41.6159 182.054C38.9023 182.794 36.1122 183.243 33.3221 183.692C30.98 176.544 28.7318 168.591 26.8538 159.136L58.1469 150.606C57.7428 146.114 57.464 141.489 57.3146 136.98L57.617 136.87C58.9123 136.395 60.121 135.953 61.461 135.588C61.3637 127.874 61.0257 120.227 60.4471 112.645C59.933 105.308 59.058 98.0689 58.0627 90.8629C56.8417 91.1958 55.5933 91.4244 54.2483 91.6707L53.9077 91.7332C53.0649 84.6168 52.5594 77.802 52.4299 69.9664L96.4631 57.9634C102.723 72.917 109.103 87.8379 115.996 102.75C115.916 101.906 115.881 101.089 115.848 100.29C115.821 99.6364 115.794 98.9943 115.742 98.359C115.284 90.7443 114.738 83.2847 113.918 75.7683L109.25 76.6474ZM211.518 42.3422C213.924 41.6863 216.066 41.4959 217.88 41.5264C217.791 34.3356 217.341 27.2432 216.675 19.8164C214.228 19.8276 210.85 20.2235 206.038 21.5353C188.834 26.225 182.179 36.697 184.039 55.9983C182.868 56.4487 181.609 57.0542 180.47 57.6269C180.398 64.2057 180.806 70.6534 181.52 77.2802L186.092 76.034L188.623 99.3503C189.977 111.837 188.697 114.809 185.994 115.808C186.2 123.051 186.862 130.286 187.522 137.418C179.015 141.096 172.334 149.581 173.542 167.428L167.61 144.906C160.876 145.496 154.23 146.996 147.802 148.748C141.089 150.578 134.453 152.698 127.903 155.73C129.656 164.129 131.761 172.12 134.371 180.286C134.833 180.214 135.282 180.165 135.725 180.117C136.553 180.026 137.363 179.938 138.199 179.71C140.98 187.361 143.437 194.946 145.465 202.647C147.264 209.476 148.777 216.383 150.109 223.184C148.719 223.718 147.472 224.214 146.12 224.894C148.016 233.254 150.121 241.246 152.588 249.45L198.579 236.914C197.4 230.694 195.831 224.737 193.795 218.751C193.234 218.854 192.653 218.946 192.068 219.039C190.827 219.237 189.56 219.438 188.396 219.755C186.14 213.518 183.788 205.749 181.617 198.087C189.727 217.835 200.751 220.748 209.749 218.295C225.746 213.935 234.128 198.101 225.977 167.151C220.532 146.481 211.244 136.988 200.813 135.457C210.514 131.341 221.425 120.789 218.111 88.426L216.049 67.868L219.538 66.9169C219.385 59.4813 218.968 52.5113 217.732 45.3709L217.385 45.4776C213.796 46.5832 210.099 47.7222 206.431 48.9761L206.238 48.2417C205.529 45.549 207.067 43.5556 211.518 42.3422ZM263.091 32.8752C264.327 40.0157 264.776 47.108 264.93 54.5436L255.184 57.2C255.277 60.979 255.434 65.0028 255.688 69.3937C256.609 88.5574 257.149 90.1157 258.833 89.6566C260.156 89.2958 261.325 86.8784 260.363 67.07L266.258 65.463C267.655 93.2862 266.584 103.417 249.861 107.975C234.822 112.075 227.768 103.897 227.03 90.3238L225.709 65.2349L221.618 66.3499C220.904 59.7231 220.496 53.2754 220.568 46.6966C221.827 46.0911 223.086 45.4856 224.497 44.9696C224.115 40.0891 223.579 35.119 222.938 29.2593C228.127 26.9268 232.602 25.3134 239.219 23.5096C244.753 22.0011 250.745 20.7613 254.941 20.5358C254.735 24.5701 254.691 28.5604 254.645 32.6955L254.645 32.7196L254.645 32.7277C254.635 33.6271 254.625 34.5334 254.613 35.4485L254.942 35.3436C257.679 34.4717 260.314 33.632 263.091 32.8752ZM307.949 20.6472C308.605 25.5846 309.261 30.5219 309.676 35.5248C310.358 49.3752 308.655 54.1685 306.008 54.89C303 55.7098 301.874 53.3932 301.428 42.889C301.14 36.4085 301.028 29.6177 301.092 22.5166C296.896 22.742 290.663 24.0474 285.129 25.556C277.55 27.6221 272.473 29.3995 266.443 31.9616C266.475 39.43 266.805 46.5551 267.559 53.8267C268.722 53.7504 269.959 53.5436 271.109 53.3512L271.418 53.2996C271.831 56.3355 272.188 59.6489 272.442 64.0398C273.397 77.947 277.54 87.3122 292.338 83.2784C300.158 81.1467 309.2 74.3529 311.125 53.7574C312.939 81.2046 310.322 87.4273 305.029 88.8703C302.021 89.6902 299.645 88.5014 299.118 84.0537C290.568 85.8598 282.627 88.0243 274.816 90.6783C275.098 105.949 286.234 112.49 310.176 105.964C311.032 105.73 311.869 105.489 312.687 105.238C305.727 110.487 302.907 118.57 305.942 130.091C309.501 143.604 317.89 149.883 337.966 147.058C352.279 145.025 354.738 146.224 355.58 149.42C356.193 151.745 354.861 153.666 351.148 154.678C346.72 155.885 342.356 154.427 340.94 149.051L340.71 148.179C331.482 149.76 322.484 152.213 312.859 155.771C315.147 166.204 317.941 176.811 320.934 186.43C330.447 184.771 339.731 182.24 348.785 178.838L343.006 156.897C351.619 174.484 362.88 176.553 375.734 173.049C392.731 168.416 398.959 158.932 394.711 142.803C391.151 129.29 382.849 123.922 364.745 126.676C348.86 129.138 346.687 127.861 345.883 124.81C345.118 121.904 346.954 120.157 350.278 119.407C353.172 118.774 356.06 119.856 357.17 124.069L357.667 125.958C366.895 124.377 375.893 121.925 385.519 118.366C383.23 107.933 380.436 97.3258 377.444 87.7072C367.93 89.3661 358.646 91.8968 349.592 95.2993L355.141 116.368C347.586 99.4148 337.811 96.5944 325.9 99.4452C338.706 91.4363 343.124 78.673 341.483 58.8626L339.717 37.9614C339.01 29.8898 338.543 21.7527 338.147 12.4156C327.51 14.1345 318.246 16.6597 307.949 20.6472ZM276.429 173.488C279.857 172.554 281.492 169.461 279.466 164.095C289.168 160.827 299.166 158.102 308.955 155.745C309.7 157.411 310.226 158.825 310.647 160.423C315.163 177.569 302.97 192.884 280.545 198.997C253.408 206.394 236.747 196.608 229.82 170.308C222.663 143.137 235.118 124.168 261.113 117.082C285.109 110.541 300.15 119.99 305.814 141.495C306.809 145.273 307.366 148.547 307.407 151.028C303.914 151.885 299.448 153.123 292.736 154.983L292.734 154.983C288.395 156.186 283.117 157.649 276.556 159.437L266.129 162.28C269.351 172.77 272.144 174.656 276.429 173.488Z" fill="black"/>
</svg>
