<svg width="16" height="16" viewBox="0 0 16 16" fill="none" xmlns="http://www.w3.org/2000/svg">
<path d="M10.7334 15.3334H5.26675C5.06675 15.3334 4.93341 15.2667 4.80008 15.1334L0.866748 11.2001C0.733415 11.1334 0.666748 10.9334 0.666748 10.7334V5.26675C0.666748 5.06675 0.733415 4.93341 0.866748 4.80008L4.80008 0.866748C4.86675 0.733415 5.06675 0.666748 5.26675 0.666748H10.8001C11.0001 0.666748 11.1334 0.733415 11.2667 0.866748L15.2001 4.80008C15.2667 4.86675 15.3334 5.06675 15.3334 5.26675V10.8001C15.3334 11.0001 15.2667 11.1334 15.1334 11.2667L11.2001 15.2001C11.1334 15.2667 10.9334 15.3334 10.7334 15.3334ZM5.53341 14.0001H10.5334L14.0667 10.4667V5.53341L10.4667 2.00008H5.53341L2.00008 5.53341V10.5334L5.53341 14.0001Z" fill="currentColor"/>
<path d="M8.00008 8.66675C7.60008 8.66675 7.33341 8.40008 7.33341 8.00008V5.33341C7.33341 4.93341 7.60008 4.66675 8.00008 4.66675C8.40008 4.66675 8.66675 4.93341 8.66675 5.33341V8.00008C8.66675 8.40008 8.40008 8.66675 8.00008 8.66675Z" fill="currentColor"/>
<path d="M8.00008 11.3334C7.80008 11.3334 7.66675 11.2667 7.53341 11.1334C7.40008 11.0001 7.33341 10.8667 7.33341 10.6667C7.33341 10.6001 7.33341 10.4667 7.40008 10.4001C7.46675 10.3334 7.46675 10.2667 7.53341 10.2001C7.73341 10.0001 8.00008 9.93341 8.26675 10.0667C8.33341 10.0667 8.33341 10.0667 8.40008 10.1334C8.40008 10.1334 8.46675 10.2001 8.53341 10.2001C8.60008 10.2667 8.66675 10.3334 8.66675 10.4001C8.66675 10.4667 8.66675 10.6001 8.66675 10.6667C8.66675 10.7334 8.66675 10.8667 8.60008 10.9334C8.53341 11.0001 8.53341 11.0667 8.46675 11.1334C8.33341 11.2667 8.20008 11.3334 8.00008 11.3334Z" fill="currentColor"/>
</svg>
