<svg width="20" height="18" viewBox="0 0 20 18" fill="none" xmlns="http://www.w3.org/2000/svg">
<g opacity="0.4">
<path fill-rule="evenodd" clip-rule="evenodd" d="M1.62305 9C1.62305 8.58579 1.98641 8.25 2.43464 8.25H17.0433C17.4916 8.25 17.8549 8.58579 17.8549 9C17.8549 9.41421 17.4916 9.75 17.0433 9.75H2.43464C1.98641 9.75 1.62305 9.41421 1.62305 9Z" fill="currentColor"/>
<path fill-rule="evenodd" clip-rule="evenodd" d="M1.62305 4.5C1.62305 4.08579 1.98641 3.75 2.43464 3.75H17.0433C17.4916 3.75 17.8549 4.08579 17.8549 4.5C17.8549 4.91421 17.4916 5.25 17.0433 5.25H2.43464C1.98641 5.25 1.62305 4.91421 1.62305 4.5Z" fill="currentColor"/>
<path fill-rule="evenodd" clip-rule="evenodd" d="M1.62305 13.5C1.62305 13.0858 1.98641 12.75 2.43464 12.75H17.0433C17.4916 12.75 17.8549 13.0858 17.8549 13.5C17.8549 13.9142 17.4916 14.25 17.0433 14.25H2.43464C1.98641 14.25 1.62305 13.9142 1.62305 13.5Z" fill="currentColor"/>
</g>
</svg>
