<svg width="19" height="19" viewBox="0 0 19 19" fill="none" xmlns="http://www.w3.org/2000/svg">
<path fill-rule="evenodd" clip-rule="evenodd" d="M7.9165 9.50008C7.9165 8.62563 8.62539 7.91675 9.49984 7.91675C10.3743 7.91675 11.0832 8.62563 11.0832 9.50008C11.0832 10.3745 10.3743 11.0834 9.49984 11.0834C8.62539 11.0834 7.9165 10.3745 7.9165 9.50008Z" fill="currentColor"/>
<path fill-rule="evenodd" clip-rule="evenodd" d="M7.9165 3.95833C7.9165 3.08388 8.62539 2.375 9.49984 2.375C10.3743 2.375 11.0832 3.08388 11.0832 3.95833C11.0832 4.83278 10.3743 5.54167 9.49984 5.54167C8.62539 5.54167 7.9165 4.83278 7.9165 3.95833Z" fill="currentColor"/>
<path fill-rule="evenodd" clip-rule="evenodd" d="M7.9165 15.0416C7.9165 14.1671 8.62539 13.4583 9.49984 13.4583C10.3743 13.4583 11.0832 14.1671 11.0832 15.0416C11.0832 15.916 10.3743 16.6249 9.49984 16.6249C8.62539 16.6249 7.9165 15.916 7.9165 15.0416Z" fill="currentColor"/>
</svg>
