<svg width="9" height="12" viewBox="0 0 9 12" fill="none" xmlns="http://www.w3.org/2000/svg">
<path fill-rule="evenodd" clip-rule="evenodd" d="M8.88975 8.7796C9.0184 8.94046 9.03444 9.16557 8.93798 9.34245H8.93799C8.84154 9.53538 8.64862 9.64799 8.43954 9.64799H0.560466C0.351401 9.64799 0.158484 9.53537 0.0620226 9.34245C-0.0344387 9.16555 -0.0183991 8.94045 0.110253 8.7796L0.930292 7.67007V4.98475C0.930292 3.24825 2.20068 1.80102 3.88897 1.51153C3.72813 1.35067 3.63166 1.12557 3.63166 0.884415C3.63166 0.401994 4.03366 0 4.51608 0C4.9985 0 5.4005 0.401994 5.4005 0.884415C5.4005 1.12558 5.30404 1.35068 5.14319 1.51153C6.79947 1.80096 8.06971 3.24814 8.06971 4.98475V7.67007L8.88975 8.7796ZM5.642 10.7735C5.642 11.3844 5.1274 11.899 4.5003 11.8991C3.87319 11.8991 3.35858 11.4006 3.35858 10.7735V10.4519C3.35858 10.3715 3.42296 10.2911 3.51942 10.2911H5.48115C5.56157 10.2911 5.642 10.3555 5.642 10.4519V10.7735Z" fill="currentColor"/>
</svg>
